<?xml version="1.0" encoding="UTF-8"?>
<svg id="Layer_1" data-name="Layer 1" xmlns="http://www.w3.org/2000/svg" viewBox="0 0 400 400">
  <defs>
    <style>
      .cls-1 {
        fill: #fff;
      }

      .cls-2 {
        fill: #ec5b70;
      }
    </style>
  </defs>
  <rect class="cls-2" x="22.5" y="22.5" width="355" height="355" rx="22.14" ry="22.14"/>
  <g>
    <path class="cls-1" d="M244.98,138.39c-11.87,2.72-17.46,20.48-20.58,32.08l-37.1.11c6.51-32.82,17.74-66.19,56.58-69.22,33-2.58,61.56,21.55,63.76,54.26s-23.12,61.97-57.05,62.04l-109.67.24-.33,21.26-48.36-39.55,48.37-39.6.34,21.33,109.7-.1c13.32-.01,22-12.58,20.54-24.25-1.58-12.69-13.34-21.54-26.21-18.6Z"/>
    <path class="cls-1" d="M145.9,260.47c17.48-4.98,22.58-15.91,28.45-31.83l37.63.03c-8.55,31.77-21.39,55.74-53.75,65.99-11.26,3.05-22.71,4.37-34.54,4.14l-31.32-.6-.09-36.24,33.42.47c6.81.1,13.58-.84,20.2-1.97Z"/>
  </g>
</svg>